<?xml version="1.0" encoding="utf-8"?>
<!-- Generator: Adobe Illustrator 16.0.0, SVG Export Plug-In . SVG Version: 6.00 Build 0)  -->
<!DOCTYPE svg PUBLIC "-//W3C//DTD SVG 1.1//EN" "http://www.w3.org/Graphics/SVG/1.1/DTD/svg11.dtd">
<svg version="1.1" id="Layer_1" xmlns="http://www.w3.org/2000/svg" xmlns:xlink="http://www.w3.org/1999/xlink" x="0px" y="0px"
	 width="848.667px" height="590.667px" viewBox="0 0 848.667 590.667" enable-background="new 0 0 848.667 590.667"
	 xml:space="preserve">
<rect x="-256.203" y="-39.056" display="none" fill="#2C2C2C" width="1333.434" height="746.962"/>
<image display="none" overflow="visible" opacity="0.5" width="1008" height="630" xlink:href="testing_point_of_diminishing_returns1.png"  transform="matrix(0.7501 0 0 0.7501 56.6724 111.3345)">
</image>
<path fill="none" stroke="#FFFFFF" stroke-width="4" stroke-miterlimit="10" d="M150.672,502.001
	c75.334-300,121.334-288,631.333-300"/>
<line opacity="0.7" fill="none" stroke="#FFFFFF" stroke-width="2" stroke-miterlimit="10" x1="149.672" y1="503.001" x2="149.672" y2="141.001"/>
<line opacity="0.7" fill="none" stroke="#FFFFFF" stroke-width="2" stroke-miterlimit="10" x1="149.672" y1="503.001" x2="782.005" y2="503.001"/>
<g>
	<text transform="matrix(1 0 0 1 708.6733 536.3345)" fill="#FFFFFF" font-family="'MyriadPro-Semibold'" font-size="30">Effort</text>
</g>
<text transform="matrix(1 0 0 1 44.6733 164.3345)" fill="#FFFFFF" font-family="'MyriadPro-Semibold'" font-size="30">Results</text>
<g opacity="0.5">
	<g>
		<line fill="none" stroke="#FFFFFF" stroke-miterlimit="10" x1="150.672" y1="205.001" x2="153.672" y2="205.001"/>
		
			<line fill="none" stroke="#FFFFFF" stroke-miterlimit="10" stroke-dasharray="6.0079,3.0039" x1="156.676" y1="205.001" x2="668.848" y2="205.001"/>
		<line fill="none" stroke="#FFFFFF" stroke-miterlimit="10" x1="670.35" y1="205.001" x2="673.35" y2="205.001"/>
	</g>
</g>
<g opacity="0.5">
	<g>
		<line fill="none" stroke="#FFFFFF" stroke-miterlimit="10" x1="673.35" y1="205.001" x2="673.35" y2="208.001"/>
		
			<line fill="none" stroke="#FFFFFF" stroke-miterlimit="10" stroke-dasharray="6.0206,3.0103" x1="673.35" y1="211.011" x2="673.35" y2="498.497"/>
		<line fill="none" stroke="#FFFFFF" stroke-miterlimit="10" x1="673.35" y1="500.001" x2="673.35" y2="503.001"/>
	</g>
</g>
<g opacity="0.5">
	<g>
		<line fill="none" stroke="#FFFFFF" stroke-miterlimit="10" x1="149.672" y1="267.001" x2="152.672" y2="267.001"/>
		
			<line fill="none" stroke="#FFFFFF" stroke-miterlimit="10" stroke-dasharray="5.8559,2.928" x1="155.6" y1="267.001" x2="259.543" y2="267.001"/>
		<line fill="none" stroke="#FFFFFF" stroke-miterlimit="10" x1="261.007" y1="267.001" x2="264.007" y2="267.001"/>
	</g>
</g>
<g opacity="0.5">
	<g>
		<line fill="none" stroke="#FFFFFF" stroke-miterlimit="10" x1="264.007" y1="268.001" x2="264.007" y2="271.001"/>
		
			<line fill="none" stroke="#FFFFFF" stroke-miterlimit="10" stroke-dasharray="6.0263,3.0132" x1="264.007" y1="274.014" x2="264.007" y2="498.495"/>
		<line fill="none" stroke="#FFFFFF" stroke-miterlimit="10" x1="264.007" y1="500.001" x2="264.007" y2="503.001"/>
	</g>
</g>
<circle fill="#DD5567" cx="289.672" cy="250.337" r="7"/>
<g>
	<text transform="matrix(1 0 0 1 289.6719 290.0029)" fill="#DD5567" font-family="'MyriadPro-Semibold'" font-size="30">Point of diminishing returns</text>
</g>
<g>
	<g opacity="0.7">
		<text transform="matrix(1 0 0 1 156.6719 200.001)" fill="#FFFFFF" font-family="'MyriadPro-Semibold'" font-size="18">Perfect</text>
	</g>
	<g opacity="0.7">
		<text transform="matrix(1 0 0 1 157.6719 260.6675)" fill="#FFFFFF" font-family="'MyriadPro-Semibold'" font-size="18">Good</text>
	</g>
	<g opacity="0.7">
		<text transform="matrix(1 0 0 1 269.0054 496.3345)" fill="#FFFFFF" font-family="'MyriadPro-Semibold'" font-size="18">Easy</text>
	</g>
	<g opacity="0.7">
		<text transform="matrix(1 0 0 1 680.0054 496.3345)" fill="#FFFFFF" font-family="'MyriadPro-Semibold'" font-size="18">Hard</text>
	</g>
</g>
<g display="none">
	
		<text transform="matrix(1 0 0 1 167.6729 85.0024)" display="inline" fill="#FFFFFF" font-family="'MyriadPro-Semibold'" font-size="44">Law of Diminishing Returns</text>
</g>
</svg>
